<svg width="140" height="200" xmlns="http://www.w3.org/2000/svg" data-name="Layer 1">
 <g>
  <title>Layer 1</title>
  <g id="svg_1">
   <path class="cls-1" d="m90.96616,4.00736a69.21683,69.21683 0 0 0 -74.00811,21.47519l32.76891,27.54984l41.2392,-49.02502z" fill="#1a73e8" id="svg_2"/>
   <path class="cls-2" d="m16.95805,25.48254a69.04571,69.04571 0 0 0 -16.17056,44.49042a77.51601,77.51601 0 0 0 6.84468,33.02558l42.09479,-49.96617l-32.76891,-27.54984z" fill="#ea4335" id="svg_3"/>
   <path class="cls-3" d="m69.87028,43.89158a26.5355,26.5355 0 0 1 26.62138,26.5355a26.27788,26.27788 0 0 1 -6.35478,17.17508l41.39195,-49.20661a69.73083,69.73083 0 0 0 -40.61907,-34.35016l-41.39195,49.37836a26.36375,26.36375 0 0 1 20.35247,-9.53217z" fill="#4285f4" id="svg_4"/>
   <path class="cls-4" d="m70.00433,96.4961a26.52314,26.52314 0 0 1 -26.52314,-26.52314a26.26646,26.26646 0 0 1 6.24577,-17.1117l-42.09479,50.13728a245.29624,245.29624 0 0 0 31.39997,44.91822l51.3351,-60.8321a26.26646,26.26646 0 0 1 -20.36292,9.41144z" fill="#fbbc04" id="svg_5"/>
   <path class="cls-5" d="m89.25499,164.51512c23.1008,-36.10569 49.96617,-52.53292 49.96617,-94.11436a69.30239,69.30239 0 0 0 -7.78582,-31.91332l-92.40319,109.42933c3.93569,5.13351 7.87138,10.60925 11.72152,16.59835c14.11715,21.73186 10.18146,34.73675 19.25066,34.73675s5.13351,-13.00489 19.25066,-34.73675z" fill="#34a853" id="svg_6"/>
  </g>
 </g>

</svg>