<svg viewBox="0 0 100 26" fill="none" xmlns="http://www.w3.org/2000/svg">
  <path
    d="M45.222 11.7491C44.8722 11.4723 44.5107 11.3338 44.1372 11.3338C43.7798 11.3338 43.4264 11.4682 43.0771 11.737C42.7278 12.0059 42.5535 12.3108 42.5535 12.6528V20.2747C42.5535 20.6167 42.7278 20.9222 43.0771 21.1911C43.4264 21.4598 43.7798 21.5938 44.1372 21.5938C44.5107 21.5938 44.8722 21.4514 45.222 21.1665C45.571 20.8817 45.7456 20.5599 45.7456 20.2013V12.7264C45.7456 12.3517 45.571 12.026 45.222 11.7491Z"
    fill="#504C4B"
  ></path>
  <path
    d="M68.8487 19.635C68.6696 19.2436 68.5565 19.0232 68.5074 18.9741C68.2473 18.7128 67.6624 18.2966 66.7532 17.7253C66.4007 17.4988 66.0922 17.2982 65.8281 17.1235C65.3411 16.8011 65.3417 16.0867 65.8283 15.7638L67.2403 14.8268C68.0199 14.3092 68.4586 14.002 68.5565 13.9049C68.8487 13.5333 68.9461 13.0804 68.8487 12.5466C68.7835 12.1909 68.5923 11.8915 68.2747 11.649C67.9572 11.4066 67.6195 11.285 67.2615 11.285C66.9846 11.285 66.6103 11.4289 66.1386 11.7165L62.5002 14.1171C62.2128 14.3067 61.8297 14.1006 61.8297 13.7562V5.94031C61.8297 5.6716 61.7866 5.40229 61.6797 5.15588C61.4223 4.56269 60.9362 4.26617 60.2213 4.26617C59.5877 4.26617 59.1322 4.51332 58.8552 5.00762C58.7035 5.27827 58.6375 5.58862 58.6375 5.89897V20.2759C58.8485 21.1549 59.3765 21.5937 60.2213 21.5937C61.1149 21.5937 61.6511 21.1274 61.8297 20.1944C61.8297 19.3921 62.7223 18.9112 63.3919 19.353C64.4117 20.0258 65.3584 20.6581 66.232 21.2501C66.7045 21.5607 67.169 21.6752 67.6254 21.5937C67.9845 21.5287 68.286 21.3329 68.5303 21.0063C68.7751 20.6799 68.8974 20.3288 68.8974 19.9534C68.8974 19.8064 68.8812 19.7006 68.8487 19.635Z"
    fill="#504C4B"
  ></path>
  <path
    d="M57.017 18.7969C56.7372 18.5677 56.3773 18.4596 56.0155 18.4596H52.2842C52.1045 18.4596 51.9334 18.4272 51.7674 18.3814C51.7195 18.3714 51.6705 18.3558 51.6194 18.3343C50.8491 18.0535 50.2911 17.3095 50.2911 16.4325C50.2911 15.3175 51.1878 14.4054 52.2842 14.4054H56.0519C56.4066 14.4054 56.7592 14.2985 57.0328 14.0729C57.3681 13.7968 57.5411 13.41 57.5411 12.9057C57.5411 12.1835 57.2449 11.693 56.6523 11.4349C56.4067 11.328 56.1382 11.2848 55.8705 11.2848H51.9604C50.8065 11.2848 49.7462 11.7626 48.7798 12.7173C47.813 13.6725 47.33 14.7295 47.33 15.8882V17.0148C47.33 18.1411 47.809 19.1859 48.7677 20.1492C49.7261 21.1124 50.7662 21.5938 51.8871 21.5938H55.8693C56.2328 21.5938 56.5952 21.5008 56.8963 21.2975C57.3262 21.0075 57.5411 20.5784 57.5411 20.0094C57.5411 19.4824 57.3634 19.0805 57.017 18.7969Z"
    fill="#504C4B"
  ></path>
  <path
    d="M46.895 8.92817L44.7884 6.9822C44.6175 6.82442 44.4012 6.74828 44.1844 6.74516C44.1726 6.74441 44.1612 6.74352 44.1494 6.74323C44.1378 6.74352 44.1264 6.74441 44.1148 6.74516C43.898 6.74828 43.6814 6.82442 43.5106 6.9822L41.4038 8.92832C41.0886 9.21963 40.9919 9.69519 41.207 10.0667C41.5097 10.5897 42.1993 10.6715 42.6167 10.2859L44.1496 8.86987L45.6823 10.2859C46.0997 10.6716 46.7894 10.5897 47.092 10.0665C47.307 9.6949 47.2102 9.21948 46.895 8.92817Z"
    fill="#0063A6"
  ></path>
  <path
    d="M28.7898 18.9786C27.2554 19.1305 25.9765 17.8517 26.1284 16.3172C26.2408 15.1819 27.1592 14.2634 28.2947 14.1509C29.8292 13.9989 31.1081 15.2779 30.9561 16.8124C30.8437 17.9478 29.9251 18.8662 28.7898 18.9786ZM29.4048 11.0917C28.2693 10.8921 27.2867 11.0248 26.4615 11.3866V5.65528C26.2829 4.72914 25.7466 4.26606 24.8531 4.26606C24.0083 4.26606 23.4802 4.70549 23.2693 5.58405V20.2515C23.2693 20.6258 23.4722 20.9514 23.8783 21.2278C24.2356 21.472 24.6177 21.5936 25.0238 21.5936C25.4094 21.5936 25.7083 21.4635 25.9306 21.2181C26.6124 21.6397 27.4322 21.8799 28.3746 21.8799C31.9639 21.8799 34.7417 18.404 33.5249 14.6343C32.9271 12.7822 31.3218 11.4288 29.4048 11.0917Z"
    fill="#504C4B"
  ></path>
  <path
    d="M76.4949 18.8775C74.9604 19.0295 73.6815 17.7505 73.8335 16.216C73.9459 15.0806 74.8643 14.1622 75.9998 14.0498C77.5342 13.8978 78.813 15.1768 78.6612 16.7111C78.5488 17.8467 77.6304 18.7651 76.4949 18.8775ZM77.0533 11.0917C75.9177 10.892 74.9352 11.0246 74.1101 11.3866V5.65528C73.9313 4.72914 73.3952 4.26606 72.5017 4.26606C71.6567 4.26606 71.1287 4.70549 70.9178 5.58405V20.2515C70.9178 20.6258 71.1206 20.9512 71.5267 21.2278C71.8841 21.472 72.2661 21.5936 72.6722 21.5936C73.0578 21.5936 73.3567 21.4635 73.579 21.2181C74.261 21.6397 75.0807 21.8799 76.0232 21.8799C79.6125 21.8799 82.3902 18.404 81.1733 14.6343C80.5755 12.7822 78.9702 11.4288 77.0533 11.0917Z"
    fill="#0063A6"
  ></path>
  <path
    d="M94.9961 18.8468C93.4617 18.9988 92.1827 17.7198 92.3347 16.1854C92.4473 15.0499 93.3657 14.1315 94.501 14.0191C96.0355 13.8671 97.3144 15.1461 97.1624 16.6806C97.05 17.816 96.1316 18.7344 94.9961 18.8468ZM95.0948 11.1927C94.2097 11.1347 93.3713 11.3013 92.6226 11.6335C92.6141 11.6372 92.6058 11.6418 92.5976 11.6457C90.771 12.4678 89.4971 14.3 89.4971 16.433C89.4971 18.506 90.7011 20.2928 92.4452 21.147C92.5241 21.187 92.603 21.2271 92.683 21.2615C92.9039 21.3561 93.1346 21.4313 93.37 21.4954C93.3727 21.496 93.375 21.4968 93.3774 21.4973C93.8152 21.6157 94.2734 21.6846 94.7486 21.6846C95.2238 21.6846 95.6818 21.6157 96.1196 21.4973C96.1222 21.4968 96.1254 21.4957 96.1283 21.4951C96.3633 21.4312 96.593 21.3561 96.8136 21.2616C96.8942 21.2271 96.9736 21.1866 97.0531 21.1464C98.8914 20.2455 100.129 18.308 99.9892 16.0922C99.8238 13.4788 97.7077 11.3639 95.0948 11.1927Z"
    fill="#0063A6"
  ></path>
  <path
    d="M12.1853 13.6711L7.73352 9.55829C7.37618 9.22846 6.92352 9.06919 6.47011 9.0628C6.44572 9.06131 6.42178 9.05938 6.39724 9.05863C6.37286 9.05938 6.34891 9.06131 6.32468 9.0628C5.87127 9.06919 5.41846 9.22846 5.06126 9.55829L0.609442 13.6711C-0.15937 14.3813 -0.207401 15.5916 0.502969 16.3603C1.21319 17.1291 2.42336 17.1771 3.19217 16.4669L6.39739 13.5058L9.60261 16.4669C10.3714 17.1771 11.5816 17.1291 12.2918 16.3603C13.002 15.5916 12.9542 14.3813 12.1853 13.6711Z"
    fill="#0063A6"
  ></path>
  <path
    d="M12.1853 22.7013L7.73352 18.5886C7.37618 18.2587 6.92352 18.0995 6.47011 18.0931C6.44572 18.0916 6.42178 18.0897 6.39724 18.0889C6.37286 18.0897 6.34891 18.0916 6.32468 18.0931C5.87127 18.0995 5.41846 18.2587 5.06126 18.5886L0.609442 22.7013C-0.15937 23.4116 -0.207401 24.6219 0.502969 25.3905C1.21319 26.1593 2.42336 26.2074 3.19217 25.4972L6.39739 22.5361L9.60261 25.4972C10.3714 26.2074 11.5816 26.1593 12.2918 25.3905C13.002 24.6219 12.9542 23.4116 12.1853 22.7013Z"
    fill="#504C4B"
  ></path>
  <path
    d="M12.1853 4.75797L7.73352 0.645201C7.37618 0.315371 6.92352 0.156106 6.47011 0.149712C6.44572 0.148224 6.42178 0.146291 6.39724 0.145548C6.37286 0.146291 6.34891 0.148224 6.32468 0.149712C5.87127 0.156106 5.41846 0.315371 5.06126 0.645201L0.609442 4.75797C-0.15937 5.46819 -0.207401 6.67851 0.502969 7.44718C1.21319 8.21599 2.42336 8.26402 3.19217 7.5538L6.39739 4.59276L9.60261 7.5538C10.3714 8.26402 11.5816 8.21599 12.2918 7.44718C13.002 6.67851 12.9542 5.46819 12.1853 4.75797Z"
    fill="#504C4B"
  ></path>
  <path
    d="M89.497 12.1817C89.464 12.0514 89.3636 11.824 89.1363 11.5791C88.9084 11.3342 88.591 11.2618 88.4613 11.245C88.2174 11.18 87.9573 11.1473 87.6812 11.1473C86.9469 11.1473 86.2185 11.3207 85.4965 11.6661C85.206 11.3678 84.8013 11.1813 84.3548 11.1813C83.4769 11.1813 82.7585 11.8996 82.7585 12.7774V15.7264V18.4498V20.1339C82.9696 21.0154 83.4976 21.4561 84.3424 21.4561C85.236 21.4561 85.7722 20.9911 85.9508 20.0606V18.45V18.4498V15.7997C85.951 15.5877 86.0689 15.3349 86.3043 15.0409C86.5397 14.7469 86.7631 14.5675 86.9744 14.502C87.4132 14.4206 87.8519 14.347 88.2906 14.2816C88.7941 14.151 89.1596 13.8326 89.3874 13.3266C89.5336 13.0002 89.6432 12.6061 89.497 12.1817Z"
    fill="#0063A6"
  ></path>
  <path
    d="M41.4443 12.9325C41.4443 12.9307 41.4446 12.9291 41.4446 12.9273C41.4446 12.7268 41.4068 12.5356 41.3411 12.3579C41.3389 12.3512 41.3374 12.3447 41.335 12.338C41.3228 12.2899 41.2972 12.2339 41.2589 12.1704C41.1436 11.9491 40.9793 11.7582 40.7806 11.6103C40.6294 11.4712 40.5054 11.3952 40.4089 11.3827C40.3439 11.3654 40.2775 11.3507 40.2102 11.3381C40.0795 11.3046 39.9433 11.2848 39.8021 11.2848C39.7798 11.2848 39.7583 11.2874 39.7363 11.2883C39.7004 11.2871 39.6652 11.285 39.6287 11.285C38.8912 11.285 38.1597 11.4596 37.4346 11.808C37.1447 11.5156 36.7438 11.3336 36.3022 11.3336C35.4244 11.3336 34.7061 12.0519 34.7061 12.9298V15.8641V18.6021V20.2718C34.917 21.1531 35.4452 21.5938 36.29 21.5938C37.1836 21.5938 37.7196 21.1287 37.8984 20.1983V18.6021V15.9376C37.8984 15.7254 38.0163 15.4726 38.2519 15.1786C38.4873 14.8846 38.7106 14.7052 38.9219 14.6396C39.1114 14.6046 39.301 14.5715 39.4904 14.5393C39.5914 14.5588 39.6955 14.5698 39.8021 14.5698C40.6566 14.5698 41.3582 13.9169 41.4367 13.0828C41.4419 13.0336 41.4444 12.9835 41.4443 12.9325Z"
    fill="#504C4B"
  ></path>
</svg>